<svg version="1.2" xmlns="http://www.w3.org/2000/svg" viewBox="0 0 15 16" width="15" height="16"><defs><clipPath clipPathUnits="userSpaceOnUse" id="cp1"><path d="m-960-886h1440v1603h-1440z"/></clipPath></defs><style>.a{fill:#ffc107}</style><g clip-path="url(#cp1)"><path class="a" d="m14.7 6.2c-0.1-0.3-0.4-0.5-0.7-0.5l-4.3-0.4-1.6-3.9c-0.2-0.3-0.4-0.5-0.8-0.5-0.3 0-0.5 0.2-0.7 0.5l-1.6 3.9-4.3 0.4c-0.3 0-0.6 0.2-0.7 0.5-0.1 0.3 0 0.7 0.3 0.9l3.2 2.8-1 4.1c0 0.4 0.1 0.7 0.3 0.9q0.2 0.1 0.5 0.1 0.2 0 0.4-0.1l3.6-2.2 3.7 2.2c0.3 0.1 0.6 0.1 0.9 0 0.2-0.2 0.3-0.5 0.3-0.9l-1-4.1 3.2-2.8c0.3-0.2 0.3-0.6 0.3-0.9z"/></g></svg>